<svg width="40" height="4" viewBox="0 0 40 4" fill="none" xmlns="http://www.w3.org/2000/svg">
<path d="M1 2.5L2.40158 1.41732C3.47473 0.58834 4.99351 0.624648 6.03953 1.48761V1.48761C7.0952 2.35854 8.63523 2.37093 9.69091 1.5V1.5C10.7466 0.629068 12.2716 0.629068 13.3273 1.5V1.5C14.3829 2.37093 15.908 2.37093 16.9636 1.5V1.5C18.0193 0.629068 19.5443 0.629068 20.6 1.5V1.5C21.6557 2.37093 23.1807 2.37093 24.2364 1.5V1.5C25.292 0.629067 26.8171 0.629068 27.8727 1.5V1.5C28.9284 2.37093 30.4534 2.37093 31.5091 1.5V1.5C32.5648 0.629068 34.0902 0.629443 35.1459 1.50037V1.50037C36.2013 2.37107 37.7261 2.37219 38.7824 1.50253L40 0.5" stroke="#2F70D9" stroke-width="2" stroke-linecap="round"/>
</svg>
